GIL01_slow3_RRA_states
nRows=6
nColumns=47

# SIMM Motion File Header:
name GIL01_slow3_RRA_states
datacolumns 47
datarows 6
otherdata 1
range 0.91983000000000048000 0.92233000000000054000
endheader
time	pelvis_tx	pelvis_ty	pelvis_tz	pelvis_tilt	pelvis_list	pelvis_rotation	hip_flexion_r	hip_adduction_r	hip_rotation_r	knee_angle_r	ankle_angle_r	subtalar_angle_r	mtp_angle_r	hip_flexion_l	hip_adduction_l	hip_rotation_l	knee_angle_l	ankle_angle_l	subtalar_angle_l	mtp_angle_l	lumbar_extension	lumbar_bending	lumbar_rotation	pelvis_tx_u	pelvis_ty_u	pelvis_tz_u	pelvis_tilt_u	pelvis_list_u	pelvis_rotation_u	hip_flexion_r_u	hip_adduction_r_u	hip_rotation_r_u	knee_angle_r_u	ankle_angle_r_u	subtalar_angle_r_u	mtp_angle_r_u	hip_flexion_l_u	hip_adduction_l_u	hip_rotation_l_u	knee_angle_l_u	ankle_angle_l_u	subtalar_angle_l_u	mtp_angle_l_u	lumbar_extension_u	lumbar_bending_u	lumbar_rotation_u
      0.91983000000000048000	     -0.53413965517690487000	      0.77644096015179231000	      0.22342243687337504000	     -3.17015208835702560000	     -3.78317519735328080000	      2.91910218723089670000	     21.96473138280354600000	      6.47086797329647910000	     -2.41849311504952840000	      0.14324164460077818000	    -12.69413507603831300000	      0.00000000000000839560	     -0.00000000000002151299	    -16.23590902454781200000	     -0.00191184276081897740	    -12.28509231289088900000	     -2.88570650960401310000	     11.99788813516100900000	      0.00000000000003257888	     -0.00000000000001823646	      5.33451816948784780000	      2.30761193958804120000	    -11.32846413873531000000	      0.84735233149706279000	      0.02538216004514331700	      0.10470845246999611000	    -11.79860884325172800000	    -27.62139725380825400000	    -33.00088382122974200000	     -4.70368621582921520000	     44.74135967173717900000	      0.09582358381510063000	    -67.35356862861405600000	    -84.38543725375662100000	      0.00000000000004835793	     -0.00000000000010919053	    -13.02095477670876800000	    -39.41231061293359500000	     -7.28437070981109880000	    -66.41516011995186400000	    -55.52861631896948300000	      0.00000000000022704187	     -0.00000000000042783591	     25.31565506764529500000	     37.56291613658062500000	     14.14728734387407400000
      0.92033000000000054000	     -0.53371602139646013000	      0.77645403078986031000	      0.22347493553889608000	     -3.17604283479659260000	     -3.79696582913800200000	      2.90255010414103730000	     21.96240394803287900000	      6.49322343629733820000	     -2.41845032139172520000	      0.10940613205790534000	    -12.73584049704320100000	      0.00000000000000841976	     -0.00000000000002156744	    -16.24231707823896500000	     -0.02160560910487235500	    -12.28868219104377400000	     -2.91908953579757440000	     11.96991870114780500000	      0.00000000000003269072	     -0.00000000000001844597	      5.34715325145553510000	      2.32636374286582550000	    -11.32135583523242900000	      0.84718170262036985000	      0.02690035687247299300	      0.10528404212784748000	    -11.76407899105601400000	    -27.54026056474896200000	    -33.20662234889368100000	     -4.60696950920177880000	     44.67932562154437900000	      0.07487209750681071700	    -67.98776663923180800000	    -82.43362902075985200000	      0.00000000000005138302	     -0.00000000000011160141	    -12.61082824440115100000	    -39.36205505046550000000	     -7.07528178266803210000	    -67.11806180556682500000	    -56.34976219925347600000	      0.00000000000022380374	     -0.00000000000041722279	     25.22412905420997800000	     37.44355885673880400000	     14.28494971865462700000
      0.92083000000000048000	     -0.53329247456449325000	      0.77646786046719185000	      0.22352771871681515000	     -3.18191586568627470000	     -3.81071459845018580000	      2.88589639936482190000	     21.96012346163613300000	      6.51554612799144460000	     -2.41841873901525160000	      0.07525472223221881000	    -12.77656671406428000000	      0.00000000000000844481	     -0.00000000000002162048	    -16.24851943090857600000	     -0.04127320872471929000	    -12.29216772526701000000	     -2.95282568204274700000	     11.94153808806617300000	      0.00000000000003278930	     -0.00000000000001862563	      5.35974175252823310000	      2.34505477235702480000	    -11.31418016814203000000	      0.84700453268816178000	      0.02841830325290318300	      0.10584643911189316000	    -11.72773916123813000000	    -27.45396738544109600000	    -33.40735379921476100000	     -4.51596305881904580000	     44.61026644527012100000	      0.05094406244741901000	    -68.61689698263489800000	    -80.46987580593618400000	      0.00000000000005195537	     -0.00000000000010829820	    -12.19817097358414200000	    -39.30766519869431600000	     -6.86697685610289990000	    -67.82762642033218000000	    -57.17261571711343000000	      0.00000000000015153690	     -0.00000000000026806196	     25.12932701896244900000	     37.31984544578652000000	     14.41673722854833200000
      0.92133000000000054000	     -0.53286901795821240000	      0.77648244903232455000	      0.22358077976322960000	     -3.18777027205508380000	     -3.82441893983500770000	      2.86914358966170640000	     21.95788702119240600000	      6.53783253809041120000	     -2.41839988467392430000	      0.04079012093524937000	    -12.81630847477503800000	      0.00000000000000847253	     -0.00000000000002168016	    -16.25451483209084100000	     -0.06091259022123406100	    -12.29554930527696200000	     -2.98691826517538230000	     11.91274581675618700000	      0.00000000000003285973	     -0.00000000000001874620	      5.37228203418113640000	      2.36368286381092170000	    -11.30694007526321500000	      0.84682079631514418000	      0.02993588322316802900	      0.10639554685424793000	    -11.68958794017113300000	    -27.36253436146359900000	    -33.60304913077132500000	     -4.43073956867396390000	     44.53421974898543600000	      0.02397198557571168400	    -69.24071036806077500000	    -78.49473472893932100000	      0.00000000000005586505	     -0.00000000000012222767	    -11.78301149757565400000	    -39.24917106406904600000	     -6.65949650144373710000	    -68.54380778752904700000	    -57.99707964571506100000	      0.00000000000013524875	     -0.00000000000023876817	     25.03125932954704100000	     37.19178539366524200000	     14.54266105608232200000
      0.92183000000000048000	     -0.53244565486592177000	      0.77649779627065829000	      0.22363411203306391000	     -3.19360515200208490000	     -3.83807627857185810000	      2.85229419428975990000	     21.95569174801967100000	      6.56007918850557200000	     -2.41839528472102530000	      0.00601493304481213070	    -12.85505965308502100000	      0.00000000000000850053	     -0.00000000000002174105	    -16.26030202941110400000	     -0.08052170055317561800	    -12.29882736487018700000	     -3.02137058492997170000	     11.88354075234413700000	      0.00000000000003293684	     -0.00000000000001887931	      5.38477247001693370000	      2.38224583425682160000	    -11.29963848227428100000	      0.84663047369542843000	      0.03145298304689405500	      0.10693127045405118000	    -11.64962696777862700000	    -27.26597623026981100000	    -33.79367996452529600000	     -4.35136065699870840000	     44.45121809860948800000	     -0.00610638409551781100	    -69.85899465758984700000	    -76.50882036799698900000	      0.00000000000005418980	     -0.00000000000011946094	    -11.36537462741808500000	    -39.18660175625627300000	     -6.45287520281632880000	    -69.26655886116762400000	    -58.82307826238536600000	      0.00000000000017884404	     -0.00000000000031521506	     24.92994066072260000000	     37.05938478831132000000	     14.66273365956472400000
      0.92233000000000054000	     -0.53202238858564244000	      0.77651390191783276000	      0.22368770878794886000	     -3.19941959746425830000	     -3.85168406528375360000	      2.83535075819374830000	     21.95353467528199300000	      6.58228260406401500000	     -2.41840651957440530000	     -0.02906791129382317900	    -12.89281559311885600000	      0.00000000000000852680	     -0.00000000000002179925	    -16.26587979809120200000	     -0.10009851837812694000	    -12.30200232992106300000	     -3.05618591097054180000	     11.85392249890185400000	      0.00000000000003301852	     -0.00000000000001902389	      5.39721143524508310000	      2.40074152728197940000	    -11.29227831449919400000	      0.84643354454148245000	      0.03296949596266908500	      0.10745351910744938000	    -11.60785667377972400000	    -27.16431371058769200000	    -33.97921963255849000000	     -4.27789352008753990000	     44.36130411088704100000	     -0.03935578637790736900	    -70.47150260385871000000	    -74.51269441941038000000	      0.00000000000005370363	     -0.00000000000011899697	    -10.94528652822093500000	    -39.11999107529913300000	     -6.24715086011448410000	    -69.99583052709373000000	    -59.65051276004457700000	      0.00000000000016982778	     -0.00000000000031298840	     24.82538452471782600000	     36.92265665577657100000	     14.77696877781247900000
